<svg width="248" height="248" viewBox="0 0 248 248" fill="none" xmlns="http://www.w3.org/2000/svg">
<circle cx="124" cy="124" r="124" fill="url(#paint0_linear_0_1)"/>
<circle cx="124.5" cy="124.5" r="117.5" fill="url(#paint1_linear_0_1)"/>
<circle cx="198" cy="129" r="35" fill="url(#paint2_linear_0_1)"/>
<path d="M7.00001 6.00002L17.5632 26.5366L30.0668 7.12038L7.00001 6.00002ZM199.083 127.319L23.2163 14.0642L21.0506 17.4272L196.917 130.681L199.083 127.319Z" fill="#711B5B"/>
<path d="M9.64286e-06 46L13.9809 64.3812L22.909 43.0828L9.64286e-06 46ZM198.773 127.156L17.3737 51.1143L15.8273 54.8033L197.227 130.844L198.773 127.156Z" fill="#711B5B"/>
<path d="M47 2.79541e-06L54.7061 21.7704L69.7067 4.21149L47 2.79541e-06ZM199.299 127.479L61.9849 10.1712L59.3867 13.2125L196.701 130.521L199.299 127.479Z" fill="#711B5B"/>
<path d="M248 47L227.729 58.0645L247.447 70.0874L248 47ZM199.708 130.041L240.337 63.4095L236.921 61.3271L196.292 127.959L199.708 130.041Z" fill="#FF73DC"/>
<path d="M202 6.65733e-06L189.839 19.6325L212.922 20.3483L202 6.65733e-06ZM199.999 129.062L203.441 18.0533L199.443 17.9294L196.001 128.938L199.999 129.062Z" fill="#FF73DC"/>
<path d="M242 7.00001L224.353 21.8963L246.077 29.7313L242 7.00001ZM199.881 129.679L237.775 24.611L234.012 23.2539L196.119 128.321L199.881 129.679Z" fill="#FF73DC"/>
<defs>
<linearGradient id="paint0_linear_0_1" x1="124" y1="0" x2="124" y2="248" gradientUnits="userSpaceOnUse">
<stop stop-color="white"/>
<stop offset="0.955645" stop-color="#AFAFAF"/>
</linearGradient>
<linearGradient id="paint1_linear_0_1" x1="153" y1="7" x2="49" y2="199" gradientUnits="userSpaceOnUse">
<stop offset="0.310638" stop-color="#988CFF"/>
<stop offset="1" stop-color="#4A3EB0"/>
</linearGradient>
<linearGradient id="paint2_linear_0_1" x1="198" y1="117" x2="163" y2="158" gradientUnits="userSpaceOnUse">
<stop stop-color="#7A6CEE"/>
<stop offset="1" stop-color="#463E88"/>
</linearGradient>
</defs>
</svg>
